<svg width="55" height="48" viewBox="0 0 55 48" fill="none" xmlns="http://www.w3.org/2000/svg">
<g clip-path="url(#clip0_89_92)">
<g clip-path="url(#clip1_89_92)">
<g clip-path="url(#clip2_89_92)">
<path d="M49.699 29.8152L49.0998 31.1824H51.4965L52.0788 29.8152H49.699ZM50.9395 37.5285L49.9352 34.9715L48.9225 37.5285H50.9395ZM48.7538 32.0094H51.1589L54.9903 41.0729H52.3151L51.6568 39.4695H48.1884L47.547 41.0729H44.9225L48.7538 32.0094ZM36.0615 32.0769H38.3906L42.1038 36.8366V32.0769H44.5596V41.0814H42.3655L38.5088 36.1445V41.0814H36.0531V32.0769H36.0615ZM31.6478 37.5454L30.6435 34.9884L29.6308 37.5454H31.6478ZM29.4622 32.0179H31.8673L35.6986 41.0814H33.0234L32.3652 39.4779H28.8967L28.2553 41.0814H25.6308L29.4622 32.0179ZM21.1327 36.4062C21.5632 36.4062 21.8923 36.3134 22.1202 36.1193C22.348 35.9252 22.4662 35.6635 22.4662 35.3428V35.3175C22.4662 34.9546 22.348 34.693 22.1033 34.5158C21.867 34.3386 21.5294 34.2542 21.1159 34.2542H19.4871V36.4145H21.1327V36.4062ZM16.9891 32.0854H21.2425C21.9345 32.0854 22.5252 32.1698 23.0062 32.3385C23.4872 32.5073 23.8754 32.7521 24.1792 33.0559C24.7109 33.5707 24.9725 34.2712 24.9725 35.1487V35.1741C24.9725 35.8661 24.8037 36.44 24.4746 36.8957C24.137 37.3514 23.6898 37.6974 23.1243 37.9337L25.2678 41.073H22.3902L20.5759 38.3473H20.5505H19.4872V41.073H16.9893V32.0686V32.0854H16.9891ZM12.5755 37.5538L11.5712 34.9968L10.5585 37.5538H12.5755ZM10.3898 32.0263H12.7949L16.6263 41.0898H13.9511L13.2928 39.4863H9.82437L9.18298 41.0898H6.55845L10.3898 32.0263ZM3.68919 36.5664C4.13648 36.5664 4.48249 36.4652 4.73567 36.2457C4.98885 36.0348 5.11544 35.7478 5.11544 35.3849V35.3596C5.11544 34.9714 4.98885 34.676 4.73567 34.4735C4.48249 34.2709 4.12804 34.1697 3.67231 34.1697H2.49924V36.5579H3.68075L3.68919 36.5664ZM0.00975161 32.0938H3.86642C4.43185 32.0938 4.94666 32.1613 5.41082 32.3048C5.87498 32.4483 6.27163 32.6508 6.59233 32.9209C6.92146 33.1909 7.16621 33.5201 7.34343 33.9167C7.52066 34.3134 7.60505 34.7606 7.60505 35.2501V35.2754C7.60505 35.8071 7.51222 36.2713 7.31811 36.6764C7.12401 37.0815 6.85395 37.419 6.51638 37.6891C6.17036 37.9676 5.76527 38.1701 5.28423 38.3052C4.81163 38.4402 4.28839 38.5077 3.73139 38.5077H2.49924V41.0816H0.00131226V32.0772L0.00975161 32.0938Z" fill="white"/>
<path d="M1.6048 47.3516C1.3685 47.3516 1.14908 47.3094 0.95497 47.2334C0.760865 47.149 0.592078 47.0393 0.457049 46.9043C0.322019 46.7608 0.212308 46.592 0.136353 46.4064C0.0603992 46.2123 0.0266418 46.0097 0.0266418 45.7819V45.7734C0.0266418 45.5624 0.0688386 45.3599 0.144793 45.1658C0.220747 44.9717 0.330459 44.8029 0.473927 44.6594C0.617396 44.516 0.777744 44.3978 0.971849 44.3134C1.16595 44.229 1.37694 44.1868 1.61324 44.1868C1.74827 44.1868 1.86642 44.1953 1.97613 44.2121C2.08584 44.229 2.18712 44.2543 2.27995 44.2965C2.37278 44.3303 2.46561 44.3725 2.54157 44.4231C2.62596 44.4738 2.70192 44.5328 2.78631 44.6004L2.44874 45.0054C2.38966 44.9548 2.33059 44.9126 2.27151 44.8704C2.21243 44.8282 2.14492 44.7945 2.0774 44.7691C2.00989 44.7438 1.93394 44.7185 1.85798 44.7016C1.77359 44.6848 1.68919 44.6763 1.59636 44.6763C1.45289 44.6763 1.3263 44.7016 1.20815 44.7607C1.09 44.8198 0.980289 44.8957 0.895895 44.997C0.803062 45.0983 0.735547 45.208 0.684911 45.343C0.634275 45.4781 0.608957 45.6131 0.608957 45.7565V45.765C0.608957 45.9253 0.634275 46.0688 0.684911 46.2038C0.735547 46.3389 0.803062 46.457 0.895895 46.5498C0.988728 46.6427 1.09844 46.7186 1.22503 46.7777C1.35162 46.8368 1.49509 46.8621 1.65544 46.8621C1.79891 46.8621 1.93394 46.8368 2.06896 46.7946C2.19556 46.7524 2.30527 46.6933 2.3981 46.6258V46.0519H1.61324V45.5793H2.92134V46.8705C2.84539 46.9381 2.76099 46.9971 2.66816 47.0562C2.57533 47.1153 2.47405 47.1659 2.37278 47.2081C2.26307 47.2503 2.15336 47.2841 2.02677 47.3094C1.90018 47.3347 1.77359 47.3431 1.63856 47.3431L1.6048 47.3516ZM5.23349 46.8537C5.3854 46.8537 5.52886 46.8283 5.65546 46.7693C5.78205 46.7102 5.89176 46.6342 5.98459 46.533C6.07742 46.4317 6.14494 46.322 6.19557 46.187C6.24621 46.0519 6.27153 45.9169 6.27153 45.765V45.7565C6.27153 45.6046 6.24621 45.4696 6.19557 45.3346C6.14494 45.1995 6.06898 45.0898 5.98459 44.9886C5.89176 44.8873 5.78205 44.8113 5.65546 44.7523C5.52886 44.6932 5.3854 44.6679 5.23349 44.6679C5.08158 44.6679 4.93811 44.6932 4.81152 44.7523C4.68493 44.8113 4.57522 44.8873 4.48239 44.9886C4.38955 45.0898 4.32204 45.1995 4.2714 45.3346C4.22077 45.4696 4.19545 45.6046 4.19545 45.7565V45.765C4.19545 45.9169 4.22077 46.0519 4.2714 46.187C4.32204 46.322 4.39799 46.4317 4.48239 46.533C4.57522 46.6342 4.68493 46.7102 4.81152 46.7693C4.93823 46.8283 5.0817 46.8537 5.23349 46.8537ZM5.22505 47.3516C4.98875 47.3516 4.76932 47.3094 4.57522 47.225C4.38111 47.1406 4.21233 47.0309 4.06886 46.8874C3.92539 46.744 3.81568 46.5752 3.73972 46.3895C3.66377 46.1954 3.62157 45.9929 3.62157 45.7819V45.7734C3.62157 45.554 3.66377 45.3515 3.73972 45.1658C3.81568 44.9717 3.92539 44.8029 4.06886 44.6594C4.21233 44.516 4.38111 44.3978 4.57522 44.3134C4.76932 44.229 4.98875 44.1868 5.22505 44.1868C5.46135 44.1868 5.68077 44.229 5.87488 44.3134C6.06898 44.3978 6.23777 44.5075 6.38124 44.651C6.52471 44.7945 6.63442 44.9632 6.71037 45.1489C6.78633 45.343 6.82852 45.5456 6.82852 45.7565V45.765C6.82852 45.9844 6.78633 46.187 6.71037 46.3726C6.63442 46.5667 6.52471 46.7355 6.38124 46.879C6.23777 47.0225 6.06898 47.1406 5.87488 47.225C5.68077 47.3094 5.46135 47.3516 5.22505 47.3516ZM7.39396 44.2291H7.99316L8.92148 46.5836L9.84137 44.2291H10.4237L9.14923 47.3178H8.67663L7.40228 44.2291H7.39396ZM11.1156 44.2291H13.3857V44.7102H11.6473V45.5035H13.1832V45.9845H11.6473V46.8116H13.4025V47.2926H11.1072V44.2293H11.1156V44.2291ZM15.5546 45.7482C15.7487 45.7482 15.9006 45.706 16.0103 45.6132C16.12 45.5204 16.1791 45.3938 16.1791 45.2419V45.2334C16.1791 45.0646 16.12 44.938 16.0103 44.8537C15.9006 44.7693 15.7402 44.7271 15.5377 44.7271H14.7528V45.7567H15.5377L15.5546 45.7482ZM14.2296 44.2291H15.5968C15.7909 44.2291 15.9597 44.2545 16.1116 44.3135C16.2635 44.3642 16.3816 44.4401 16.4829 44.5414C16.5673 44.6258 16.6264 44.7271 16.6686 44.8368C16.7108 44.9465 16.7361 45.0731 16.7361 45.2081V45.2165C16.7361 45.3431 16.7192 45.4528 16.6855 45.5541C16.6517 45.6554 16.6011 45.7398 16.5335 45.8242C16.466 45.9001 16.3901 45.9676 16.3057 46.0183C16.2129 46.0689 16.12 46.1111 16.0103 46.1449L16.8374 47.3095H16.2044L15.4533 46.2377H15.4449H14.7782V47.3095H14.238V44.2461L14.2296 44.2291ZM17.5715 44.2291H18.0694L19.7151 46.3473V44.2291H20.2467V47.2925H19.7995L18.1116 45.1153V47.2925H17.5799V44.2291H17.5715ZM22.677 46.8537C22.8289 46.8537 22.9724 46.8283 23.099 46.7693C23.2256 46.7102 23.3353 46.6342 23.4281 46.533C23.521 46.4317 23.5885 46.322 23.6391 46.187C23.6898 46.0519 23.7151 45.9169 23.7151 45.765V45.7565C23.7151 45.6046 23.6898 45.4696 23.6391 45.3346C23.5885 45.1995 23.5125 45.0898 23.4281 44.9886C23.3353 44.8873 23.2256 44.8113 23.099 44.7523C22.9724 44.6932 22.8289 44.6679 22.677 44.6679C22.5251 44.6679 22.3817 44.6932 22.2551 44.7523C22.1285 44.8113 22.0188 44.8873 21.9259 44.9886C21.8331 45.0898 21.7656 45.1995 21.715 45.3346C21.6643 45.4696 21.639 45.6046 21.639 45.7565V45.765C21.639 45.9169 21.6643 46.0519 21.715 46.187C21.7656 46.322 21.8415 46.4317 21.9259 46.533C22.0188 46.6342 22.1285 46.7102 22.2551 46.7693C22.3818 46.8283 22.5252 46.8537 22.677 46.8537ZM22.6686 47.3516C22.4323 47.3516 22.2129 47.3094 22.0188 47.225C21.8247 47.1406 21.6559 47.0309 21.5124 46.8874C21.3689 46.744 21.2592 46.5752 21.1833 46.3895C21.1073 46.1954 21.0651 45.9929 21.0651 45.7819V45.7734C21.0651 45.554 21.1073 45.3515 21.1833 45.1658C21.2592 44.9717 21.3689 44.8029 21.5124 44.6594C21.6559 44.516 21.8247 44.3978 22.0188 44.3134C22.2129 44.229 22.4323 44.1868 22.6686 44.1868C22.9049 44.1868 23.1243 44.229 23.3184 44.3134C23.5125 44.3978 23.6813 44.5075 23.8248 44.651C23.9683 44.7945 24.078 44.9632 24.1539 45.1489C24.2299 45.343 24.2721 45.5456 24.2721 45.7565V45.765C24.2721 45.9844 24.2299 46.187 24.1539 46.3726C24.078 46.5667 23.9683 46.7355 23.8248 46.879C23.6813 47.0225 23.5125 47.1406 23.3184 47.225C23.1243 47.3094 22.9049 47.3516 22.6686 47.3516ZM27.7321 46.8116C27.8924 46.8116 28.0359 46.7863 28.1709 46.7356C28.306 46.685 28.4157 46.609 28.5085 46.5246C28.6013 46.4318 28.6689 46.3221 28.7195 46.1955C28.7701 46.0689 28.7955 45.9339 28.7955 45.782V45.7735C28.7955 45.6216 28.7701 45.4866 28.7195 45.36C28.6689 45.2334 28.5929 45.1237 28.5085 45.0309C28.4157 44.938 28.306 44.8705 28.1709 44.8115C28.0359 44.7608 27.8924 44.7355 27.7321 44.7355H27.1245V46.8199H27.7321V46.8116ZM26.5928 44.2376H27.7321C27.9684 44.2376 28.1878 44.2798 28.3904 44.3557C28.5929 44.4317 28.7617 44.5414 28.9052 44.6764C29.0486 44.8115 29.1583 44.9718 29.2427 45.1575C29.3187 45.3431 29.3609 45.5457 29.3609 45.7567V45.7651C29.3609 45.9845 29.3187 46.1786 29.2427 46.3727C29.1668 46.5584 29.0486 46.7188 28.9052 46.8622C28.7617 46.9973 28.5845 47.107 28.3904 47.1829C28.1878 47.2589 27.9684 47.3011 27.7321 47.3011H26.5928V44.2376ZM31.6647 46.8621C31.8166 46.8621 31.9601 46.8368 32.0867 46.7777C32.2133 46.7186 32.323 46.6427 32.4158 46.5414C32.5087 46.4401 32.5762 46.3304 32.6268 46.1954C32.6774 46.0604 32.7028 45.9253 32.7028 45.7734V45.765C32.7028 45.6131 32.6774 45.4781 32.6268 45.343C32.5762 45.208 32.5002 45.0983 32.4158 44.997C32.323 44.8957 32.2133 44.8198 32.0867 44.7607C31.9601 44.7016 31.8166 44.6763 31.6647 44.6763C31.5128 44.6763 31.3693 44.7016 31.2428 44.7607C31.1162 44.8198 31.0064 44.8957 30.9136 44.997C30.8208 45.0983 30.7533 45.208 30.7026 45.343C30.652 45.4781 30.6267 45.6131 30.6267 45.765V45.7734C30.6267 45.9253 30.652 46.0604 30.7026 46.1954C30.7533 46.3304 30.8292 46.4401 30.9136 46.5414C31.0064 46.6427 31.1162 46.7186 31.2428 46.7777C31.3693 46.8368 31.5128 46.8621 31.6647 46.8621ZM31.6563 47.36C31.42 47.36 31.2006 47.3178 31.0064 47.2334C30.8123 47.149 30.6436 47.0393 30.5001 46.8959C30.3566 46.7524 30.2469 46.5836 30.1709 46.3979C30.095 46.2038 30.0528 46.0013 30.0528 45.7903V45.7819C30.0528 45.5624 30.095 45.3599 30.1709 45.1742C30.2469 44.9801 30.3566 44.8113 30.5001 44.6679C30.6436 44.5244 30.8123 44.4063 31.0064 44.3219C31.2006 44.2375 31.42 44.1953 31.6563 44.1953C31.8926 44.1953 32.112 44.2375 32.3061 44.3219C32.5002 44.4063 32.669 44.516 32.8125 44.6594C32.9559 44.8029 33.0656 44.9717 33.1416 45.1574C33.2176 45.3515 33.2598 45.554 33.2598 45.765V45.7734C33.2598 45.9929 33.2176 46.1954 33.1416 46.3811C33.0656 46.5752 32.9559 46.744 32.8125 46.8874C32.669 47.0309 32.5002 47.149 32.3061 47.2334C32.112 47.3178 31.8926 47.36 31.6563 47.36ZM35.5805 44.2376H37.8505V44.7186H36.1121V45.5119H37.6481V45.993H36.1121V46.82H37.8674V47.3011H35.572V44.2377L35.5805 44.2376ZM39.7663 47.3431C39.53 47.3431 39.3021 47.301 39.0911 47.225C38.8717 47.1406 38.6776 47.0225 38.4919 46.8537L38.8126 46.4655C38.9645 46.592 39.108 46.6933 39.2599 46.7608C39.4118 46.8283 39.5806 46.8621 39.7747 46.8621C39.9435 46.8621 40.0701 46.8283 40.1713 46.7608C40.2726 46.6933 40.3148 46.6005 40.3148 46.4823V46.4739C40.3148 46.4148 40.3064 46.3726 40.2895 46.3304C40.2726 46.2882 40.2389 46.246 40.1882 46.2123C40.1376 46.1701 40.0701 46.1363 39.9772 46.111C39.8844 46.0772 39.7747 46.0435 39.6312 46.0182C39.4709 45.9844 39.319 45.9338 39.1924 45.8916C39.0658 45.8409 38.9561 45.7819 38.8717 45.7144C38.7873 45.6468 38.7198 45.5624 38.6776 45.4612C38.6354 45.3599 38.6101 45.2417 38.6101 45.0983V45.0898C38.6101 44.9548 38.6354 44.8367 38.686 44.7269C38.7367 44.6172 38.8126 44.5244 38.9054 44.4484C38.9983 44.3725 39.108 44.3134 39.2346 44.2628C39.3612 44.2206 39.5046 44.1953 39.6565 44.1953C39.8844 44.1953 40.087 44.229 40.2642 44.2965C40.4414 44.3641 40.6102 44.4569 40.7705 44.5835L40.4836 44.9886C40.3401 44.8873 40.2051 44.8113 40.0701 44.7523C39.935 44.7016 39.7916 44.6679 39.6565 44.6679C39.4962 44.6679 39.378 44.7016 39.2852 44.7691C39.2008 44.8367 39.1502 44.9295 39.1502 45.0308V45.0392C39.1502 45.0983 39.1586 45.1489 39.1839 45.1911C39.2008 45.2333 39.243 45.2755 39.2937 45.3177C39.3443 45.3515 39.4202 45.3852 39.5131 45.419C39.6059 45.4527 39.7325 45.4865 39.876 45.5202C40.0363 45.5624 40.1798 45.6046 40.3064 45.6553C40.433 45.7059 40.5342 45.765 40.6186 45.8409C40.703 45.9085 40.7621 45.9929 40.8043 46.0941C40.8465 46.187 40.8718 46.2967 40.8718 46.4233V46.4317C40.8718 46.5752 40.8465 46.7018 40.7874 46.8199C40.7368 46.9381 40.6608 47.0309 40.5596 47.1068C40.4667 47.1828 40.3486 47.2419 40.2135 47.2841C40.0785 47.3263 39.935 47.3431 39.7747 47.3431H39.7663ZM42.4245 44.7355H41.454V44.2376H43.9435V44.7355H42.973V47.3009H42.4329V44.7355H42.4245ZM46.5428 46.0858L46.0111 44.8621L45.4879 46.0858H46.5428ZM45.7748 44.2123H46.2728L47.6231 47.3009H47.0576L46.7454 46.5583H45.2938L44.9815 47.3009H44.433L45.7833 44.2123H45.7748ZM49.4627 46.8116C49.6231 46.8116 49.7665 46.7863 49.9016 46.7356C50.0366 46.685 50.1463 46.609 50.2391 46.5246C50.332 46.4318 50.3995 46.3221 50.4501 46.1955C50.5008 46.0689 50.5261 45.9339 50.5261 45.782V45.7735C50.5261 45.6216 50.5008 45.4866 50.4501 45.36C50.3995 45.2334 50.3235 45.1237 50.2391 45.0309C50.1463 44.938 50.0366 44.8705 49.9016 44.8115C49.7665 44.7608 49.6231 44.7355 49.4627 44.7355H48.8551V46.8199H49.4627V46.8116ZM48.3234 44.2376H49.4627C49.699 44.2376 49.9184 44.2798 50.121 44.3557C50.3235 44.4317 50.4923 44.5414 50.6358 44.6764C50.7793 44.8115 50.889 44.9718 50.9734 45.1575C51.0493 45.3431 51.0915 45.5457 51.0915 45.7567V45.7651C51.0915 45.9845 51.0493 46.1786 50.9734 46.3727C50.8974 46.5584 50.7793 46.7188 50.6358 46.8622C50.4923 46.9973 50.3151 47.107 50.121 47.1829C49.9184 47.2589 49.699 47.3011 49.4627 47.3011H48.3234V44.2376ZM53.3953 46.8621C53.5473 46.8621 53.6907 46.8368 53.8173 46.7777C53.9439 46.7186 54.0536 46.6427 54.1464 46.5414C54.2393 46.4401 54.3068 46.3304 54.3574 46.1954C54.4081 46.0604 54.4334 45.9253 54.4334 45.7734V45.765C54.4334 45.6131 54.4081 45.4781 54.3574 45.343C54.3068 45.208 54.2308 45.0983 54.1464 44.997C54.0536 44.8957 53.9439 44.8198 53.8173 44.7607C53.6907 44.7016 53.5473 44.6763 53.3953 44.6763C53.2434 44.6763 53.1 44.7016 52.9734 44.7607C52.8468 44.8198 52.7371 44.8957 52.6442 44.997C52.5514 45.0983 52.4839 45.208 52.4333 45.343C52.3826 45.4781 52.3573 45.6131 52.3573 45.765V45.7734C52.3573 45.9253 52.3826 46.0604 52.4333 46.1954C52.4839 46.3304 52.5598 46.4401 52.6442 46.5414C52.7371 46.6427 52.8468 46.7186 52.9734 46.7777C53.1 46.8368 53.2434 46.8621 53.3953 46.8621ZM53.3869 47.36C53.1506 47.36 52.9312 47.3178 52.7371 47.2334C52.543 47.149 52.3742 47.0393 52.2307 46.8959C52.0872 46.7524 51.9775 46.5836 51.9016 46.3979C51.8256 46.2038 51.7834 46.0013 51.7834 45.7903V45.7819C51.7834 45.5624 51.8256 45.3599 51.9016 45.1742C51.9775 44.9801 52.0872 44.8113 52.2307 44.6679C52.3742 44.5244 52.543 44.4063 52.7371 44.3219C52.9312 44.2375 53.1506 44.1953 53.3869 44.1953C53.6232 44.1953 53.8426 44.2375 54.0367 44.3219C54.2308 44.4063 54.3996 44.516 54.5431 44.6594C54.6866 44.8029 54.7963 44.9717 54.8722 45.1574C54.9482 45.3515 54.9904 45.554 54.9904 45.765V45.7734C54.9904 45.9929 54.9482 46.1954 54.8722 46.3811C54.7963 46.5752 54.6866 46.744 54.5431 46.8874C54.3996 47.0309 54.2308 47.149 54.0367 47.2334C53.8426 47.3178 53.6232 47.36 53.3869 47.36Z" fill="white"/>
<path d="M16.3224 0.0168787C22.9893 2.5992 27.5548 7.13102 32.6604 11.0046C37.2344 14.4646 42.8801 18.5407 50.8298 17.5617L54.9818 2.48949C47.9099 5.63725 41.3865 5.29968 34.9897 3.65412C29.2258 2.17724 23.7994 0 17.217 0H17.1917C16.9047 0 16.6178 0.00843935 16.3224 0.0168787Z" fill="white"/>
<path d="M4.17023 11.4603L0.0181885 26.5324C7.09013 23.3846 13.6135 23.7222 20.0103 25.3678C26.0358 26.9122 31.69 29.216 38.6776 29.005C31.7997 26.3383 27.1413 21.6124 21.8332 17.646C17.8415 14.6586 13.0144 11.3167 6.54157 11.3167C5.77359 11.3167 4.98029 11.3673 4.16179 11.4686L4.17023 11.4603Z" fill="white"/>
<path d="M22.1539 13.0552C21.4788 15.57 23.4705 17.9837 26.3144 18.8191C28.998 19.6039 32.1964 18.3718 32.8462 15.9667C33.5298 13.4603 31.5297 11.0382 28.6942 10.2029C28.1456 10.0425 27.5802 9.96655 27.0148 9.96655C24.8122 9.96655 22.677 11.1396 22.1539 13.0552Z" fill="white"/>
</g>
</g>
</g>
<defs>
<clipPath id="clip0_89_92">
<rect width="55" height="47.36" fill="white"/>
</clipPath>
<clipPath id="clip1_89_92">
<rect width="55" height="47.36" fill="white"/>
</clipPath>
<clipPath id="clip2_89_92">
<rect width="54.9974" height="47.36" fill="white" transform="translate(0.00131226)"/>
</clipPath>
</defs>
</svg>
