<svg width="40" height="38" viewBox="0 0 40 38" fill="none" xmlns="http://www.w3.org/2000/svg">
<path d="M15.4186 27.1246C15.7 26.3735 15.862 25.5653 15.862 24.7163C15.862 20.9073 12.7745 17.6224 8.96547 17.6224C5.30203 17.6224 2.31516 20.6776 2.09102 24.2845C5.45312 25.7769 10.1124 26.7646 15.4186 27.1246Z" fill="#D13834"/>
<path d="M21.3793 16.9329C18.4696 16.9329 15.9855 18.7378 14.9731 21.2867C15.5366 22.3143 15.862 23.4873 15.862 24.7163C15.862 25.5646 15.7001 26.3716 15.4194 27.1219C16.9021 27.2226 18.4311 27.2778 20.0001 27.2778C22.6518 27.2778 25.1973 27.1281 27.5739 26.8453C28.0195 25.9336 28.2759 24.9129 28.2759 23.8295C28.2759 20.0205 25.1883 16.9329 21.3793 16.9329Z" fill="#88C057"/>
<path d="M14.9731 21.2867C15.8711 19.0274 17.9245 17.3557 20.4059 17.0047C21.0198 15.973 21.3791 14.7723 21.3791 13.4847C21.3791 9.67572 18.2915 6.58815 14.4825 6.58815C10.6742 6.58815 7.58594 9.67572 7.58594 13.4847C7.58594 15.0399 8.10734 16.4696 8.97563 17.6233C11.5915 17.6274 13.809 19.0792 14.9731 21.2867C14.9918 21.3205 14.9552 21.2529 14.9731 21.2867Z" fill="#ED8F1F"/>
<path d="M18.6207 22.4502C18.6207 22.8309 18.3117 23.1399 17.931 23.1399C17.5503 23.1399 17.2413 22.8309 17.2413 22.4502C17.2413 22.0695 17.5503 21.7605 17.931 21.7605C18.3117 21.7605 18.6207 22.0695 18.6207 22.4502Z" fill="white"/>
<path d="M20.6897 21.0709C20.6897 21.4516 20.3807 21.7606 20 21.7606C19.6193 21.7606 19.3103 21.4516 19.3103 21.0709C19.3103 20.6902 19.6193 20.3812 20 20.3812C20.3807 20.3812 20.6897 20.6902 20.6897 21.0709Z" fill="white"/>
<path d="M19.3103 25.2088C19.3103 25.5895 19.0013 25.8985 18.6206 25.8985C18.2399 25.8985 17.9309 25.5895 17.9309 25.2088C17.9309 24.8281 18.2399 24.5191 18.6206 24.5191C19.0014 24.5192 19.3103 24.8281 19.3103 25.2088Z" fill="white"/>
<path d="M13.7931 26.5881C13.7931 26.9688 13.4841 27.2778 13.1034 27.2778C12.7227 27.2778 12.4137 26.9688 12.4137 26.5881C12.4137 26.2074 12.7227 25.8984 13.1034 25.8984C13.4841 25.8984 13.7931 26.2074 13.7931 26.5881Z" fill="white"/>
<path d="M12.4138 24.5192C12.4138 24.8999 12.1048 25.2088 11.7241 25.2088C11.3434 25.2088 11.0345 24.8999 11.0345 24.5192C11.0345 24.1385 11.3434 23.8295 11.7241 23.8295C12.1048 23.8295 12.4138 24.1385 12.4138 24.5192Z" fill="white"/>
<path d="M13.7931 22.4502C13.7931 22.8309 13.4841 23.1399 13.1034 23.1399C12.7227 23.1399 12.4137 22.8309 12.4137 22.4502C12.4137 22.0695 12.7227 21.7605 13.1034 21.7605C13.4841 21.7605 13.7931 22.0695 13.7931 22.4502Z" fill="white"/>
<path d="M10.3448 22.4502C10.3448 22.8309 10.0359 23.1399 9.65516 23.1399C9.27445 23.1399 8.96547 22.8309 8.96547 22.4502C8.96547 22.0695 9.27445 21.7605 9.65516 21.7605C10.0359 21.7605 10.3448 22.0695 10.3448 22.4502Z" fill="white"/>
<path d="M20.6897 23.1399C20.6897 23.5206 20.3807 23.8296 20 23.8296C19.6193 23.8296 19.3103 23.5206 19.3103 23.1399C19.3103 22.7592 19.6193 22.4502 20 22.4502C20.3807 22.4502 20.6897 22.7592 20.6897 23.1399Z" fill="white"/>
<path d="M20.0001 27.2778C11.8504 27.2778 4.67383 25.8839 0.471719 23.4716C0.166172 24.0943 0 24.7412 0 25.4053C0 30.3571 8.95445 34.1743 20 34.1743C31.0455 34.1743 40 30.3571 40 25.4053C40 24.7412 39.8338 24.0943 39.5283 23.4715C35.3262 25.8839 28.1498 27.2778 20.0001 27.2778Z" fill="#7F532F"/>
<path d="M11.0345 12.795C11.0345 13.1757 10.7255 13.4847 10.3448 13.4847C9.96406 13.4847 9.65508 13.1757 9.65508 12.795C9.65508 12.4143 9.96406 12.1053 10.3448 12.1053C10.7255 12.1053 11.0345 12.4143 11.0345 12.795Z" fill="white"/>
<path d="M13.1034 10.726C13.1034 11.1067 12.7945 11.4157 12.4137 11.4157C12.033 11.4157 11.7241 11.1067 11.7241 10.726C11.7241 10.3453 12.033 10.0364 12.4137 10.0364C12.7945 10.0364 13.1034 10.3453 13.1034 10.726Z" fill="white"/>
<path d="M12.4138 15.5536C12.4138 15.9343 12.1048 16.2433 11.7241 16.2433C11.3434 16.2433 11.0345 15.9343 11.0345 15.5536C11.0345 15.1729 11.3434 14.8639 11.7241 14.8639C12.1048 14.8639 12.4138 15.1729 12.4138 15.5536Z" fill="white"/>
<path d="M13.7931 13.4846C13.7931 13.8653 13.4841 14.1743 13.1034 14.1743C12.7227 14.1743 12.4137 13.8653 12.4137 13.4846C12.4137 13.1039 12.7227 12.7949 13.1034 12.7949C13.4841 12.7949 13.7931 13.1039 13.7931 13.4846Z" fill="white"/>
<path d="M20 34.1743C14.2993 34.1743 9.1607 33.1557 5.51727 31.4916V37.6226H34.4828V31.4916C30.8393 33.1557 25.7007 34.1743 20 34.1743Z" fill="#A46F3E"/>
<path d="M36.1098 8.72151C35.7719 7.33807 35.0243 6.04768 33.7202 5.47533C33.1463 5.22291 32.474 5.08565 31.7243 5.20916C31.7243 5.20916 30.474 3.61401 30.345 0.381584C30.345 0.381584 27.6077 0.187131 26.8967 2.45057C26.8967 2.45057 29.7126 4.26088 29.6553 6.58854C29.6553 6.58854 29.6043 8.79338 30.345 10.0368C30.9864 11.1141 32.345 15.5003 27.7236 21.1244C28.0787 21.9547 28.2759 22.8688 28.2759 23.8295C28.2759 24.9102 28.0202 25.9292 27.5767 26.8403C29.5526 26.6051 31.4133 26.281 33.1119 25.8671C36.3167 22.387 38.1381 17.0167 36.1098 8.72151Z" fill="#F9D70B"/>
</svg>
